<svg version="1.0" id="svg-map" xmlns="http://www.w3.org/2000/svg"
width="700px" height="1000px" viewBox="0 0 1272.000000 1701.000000"
preserveAspectRatio="xMidYMid meet">

<g transform="translate(0.000000,1701.000000) scale(0.100000,-0.100000)"
fill="#460E06" stroke="#F8BB5C" stroke-width="155" stroke-linecap="round"
stroke-linejoin="round">  
<a class="regiao" name="oeste" code="4">
    <path d="M5401 16789 c-163 -183 -180 -221 -142 -317 31 -79 28 -143 -15 -252
    -34 -88 -35 -94 -21 -129 28 -69 29 -121 6 -206 -11 -44 -25 -104 -30 -134
    -21 -117 -71 -163 -203 -185 -38 -7 -71 -16 -73 -22 -1 -5 16 -17 38 -28 27
    -12 52 -35 71 -65 28 -43 29 -50 24 -116 -8 -95 -81 -500 -100 -553 -31 -86
    -108 -174 -186 -212 -25 -12 -52 -25 -60 -29 -8 -5 -34 -53 -57 -107 l-42
    -100 19 -63 c35 -112 23 -176 -51 -263 -21 -26 -39 -55 -39 -65 -1 -34 -37
    -100 -68 -121 -16 -12 -66 -36 -111 -53 -44 -17 -95 -44 -112 -60 -29 -27 -31
    -34 -27 -77 3 -32 18 -71 46 -119 23 -39 42 -77 42 -85 0 -7 -24 -40 -54 -73
    l-53 -60 -5 -120 c-8 -176 -50 -288 -163 -435 -23 -30 -67 -98 -98 -151 -76
    -131 -134 -199 -215 -252 l-68 -45 -21 -78 c-12 -44 -24 -95 -27 -114 -9 -53
    -41 -97 -85 -120 -66 -33 -75 -60 -82 -255 -7 -192 -18 -233 -91 -346 -46 -73
    -228 -262 -365 -380 -50 -44 -101 -95 -113 -114 -11 -18 -27 -70 -35 -115 -25
    -141 -84 -238 -179 -294 -39 -23 -55 -46 -145 -205 -189 -335 -281 -430 -418
    -431 -29 0 -71 7 -93 16 -38 15 -42 15 -68 -2 -15 -10 -231 -181 -479 -380
    -249 -200 -537 -428 -640 -506 l-188 -143 95 -6 c122 -7 188 -27 332 -99 195
    -98 251 -106 368 -53 154 69 289 23 368 -125 50 -93 117 -135 317 -197 66 -20
    140 -49 165 -65 25 -15 71 -33 103 -40 43 -9 69 -21 99 -48 76 -69 96 -142
    107 -387 8 -192 11 -206 81 -325 18 -31 20 -52 20 -210 l0 -176 113 -12 c303
    -34 467 -94 612 -224 33 -30 75 -60 93 -67 51 -21 162 -9 460 50 61 12 62 16
    30 109 -16 50 -35 79 -84 131 -94 100 -109 134 -109 249 0 155 41 247 137 313
    56 37 118 54 267 72 144 17 454 91 482 114 29 24 47 288 29 422 -7 52 -15 144
    -17 206 -7 146 13 217 89 318 77 102 222 244 308 302 160 108 202 174 211 333
    4 85 10 116 32 164 55 120 176 279 249 328 45 31 102 36 169 17 36 -11 38 -14
    58 -88 11 -42 23 -90 27 -107 5 -28 11 -32 57 -43 75 -17 145 -60 223 -139 38
    -39 87 -79 109 -90 77 -39 125 -112 125 -190 0 -22 6 -44 13 -49 27 -21 332
    -86 407 -86 67 0 82 3 146 36 39 20 82 37 97 37 22 0 101 25 115 36 2 1 -12
    19 -32 38 -45 46 -61 100 -60 206 0 68 5 95 24 135 23 46 80 111 140 161 24
    19 27 33 43 159 l17 139 -29 41 c-63 89 -100 184 -127 330 -28 155 -80 230
    -202 293 -108 56 -179 137 -184 209 -1 15 5 51 12 80 12 46 11 65 -9 185 -20
    117 -23 159 -20 343 4 175 7 216 22 244 24 48 22 51 -27 51 -40 0 -46 -3 -65
    -35 -19 -32 -24 -35 -68 -35 -58 0 -90 18 -170 97 -49 47 -62 68 -72 108 -19
    82 9 186 72 261 65 78 62 100 -18 164 -64 51 -109 101 -136 151 -8 15 -24 45
    -37 67 -49 90 -67 228 -98 761 -22 384 -22 388 48 540 l57 124 -38 46 c-54 65
    -71 103 -71 158 0 53 24 102 63 128 13 8 58 22 98 31 69 14 149 48 259 109 38
    21 56 25 112 23 61 -2 69 0 84 21 26 37 314 634 314 651 0 8 -23 30 -51 49
    -59 40 -95 96 -110 174 l-12 56 -46 -5 c-36 -4 -56 0 -90 18 -111 58 -114 118
    -18 341 l69 157 -12 68 c-10 60 -9 73 10 126 24 70 25 86 6 111 -13 18 -18 16
    -86 -43 -40 -34 -77 -59 -82 -56 -4 3 -8 38 -8 77 0 92 -5 100 -54 86 -26 -7
    -52 -7 -87 0 -100 22 -144 60 -143 123 l2 41 -53 -84 c-88 -139 -82 -136 -90
    -44 -3 44 -9 87 -12 95 -5 16 -11 5 -54 -95 l-22 -50 -34 159 c-18 88 -36 162
    -38 164 -2 3 -38 -9 -79 -26 l-75 -30 -51 96 c-29 54 -55 100 -58 104 -4 3
    -47 -49 -97 -118 -49 -68 -92 -120 -96 -116 -3 4 -23 67 -44 140 -21 72 -39
    132 -40 132 -1 0 -34 -36 -74 -81z"/>
</a>
<a class="regiao" name="norte" code="1">
    <path d="M6995 16293 c-142 -81 -163 -112 -145 -219 12 -73 6 -95 -73 -280
    -32 -72 -57 -140 -57 -152 0 -48 63 -74 116 -48 56 26 83 21 100 -19 7 -19 14
    -49 14 -67 0 -83 40 -152 106 -183 25 -12 42 -29 55 -60 l19 -43 -34 -79 c-52
    -119 -251 -527 -303 -620 -26 -46 -54 -85 -63 -88 -9 -3 -37 4 -62 15 -54 24
    -78 19 -170 -37 -65 -39 -171 -78 -240 -88 -49 -8 -68 -28 -68 -74 0 -31 10
    -49 61 -109 l61 -72 -20 -48 c-11 -26 -41 -94 -67 -152 -54 -120 -53 -107 -35
    -430 42 -747 52 -789 227 -948 46 -42 91 -89 99 -104 29 -56 15 -107 -53 -196
    -32 -42 -33 -47 -16 -53 10 -4 29 -8 42 -8 l25 -1 -31 -32 c-33 -35 -63 -88
    -63 -111 0 -17 104 -117 121 -117 6 0 30 16 52 36 l40 37 71 -8 c39 -5 99 -9
    133 -9 33 -1 59 -5 56 -9 -3 -4 13 -31 34 -60 58 -77 79 -116 97 -177 36 -127
    58 -133 298 -85 101 20 232 47 291 61 159 38 202 24 258 -87 16 -32 33 -59 37
    -59 4 0 36 49 71 110 l63 109 32 -16 c17 -9 66 -36 109 -60 44 -25 80 -43 82
    -41 1 2 10 27 19 55 28 83 47 93 185 93 64 0 136 -5 160 -11 85 -19 157 -91
    184 -184 l14 -50 79 -3 c91 -3 146 13 187 56 62 65 148 308 148 422 0 78 -10
    109 -61 175 -21 27 -49 73 -62 100 -42 85 -152 405 -142 414 5 5 97 72 205
    149 l197 141 -2 84 c-1 103 11 125 94 167 101 51 174 63 345 56 185 -7 278
    -21 330 -50 418 -238 581 -324 590 -314 1 2 17 53 35 115 18 62 39 114 47 117
    7 3 42 8 77 12 81 8 143 -18 177 -74 13 -20 23 -38 24 -39 1 -2 26 7 56 20 50
    20 68 22 248 19 l194 -2 31 33 c32 36 112 171 216 370 l62 117 -52 47 c-51 46
    -51 46 -32 65 19 20 19 20 -3 42 -12 12 -26 30 -32 40 -10 18 -13 18 -87 -8
    -116 -40 -211 -51 -304 -36 -110 18 -173 44 -281 118 -244 167 -254 173 -288
    168 -27 -4 -92 25 -370 161 -186 90 -384 180 -439 199 -155 52 -259 55 -433
    12 -9 -2 -30 29 -60 87 -55 107 -93 140 -155 132 -54 -7 -137 -68 -195 -141
    -36 -47 -58 -65 -87 -74 -93 -28 -167 -96 -242 -224 l-39 -67 -57 98 -57 99
    -132 -42 c-73 -24 -183 -61 -244 -84 -62 -23 -124 -42 -138 -42 -30 0 -105 65
    -105 91 0 14 12 22 46 30 l47 12 -31 26 c-29 25 -31 29 -30 101 1 93 -20 149
    -95 262 -30 46 -59 93 -66 105 -15 30 -13 84 4 107 24 32 18 72 -31 185 -136
    313 -267 495 -338 468 -8 -3 -23 -22 -33 -42 l-19 -36 -16 50 -16 51 58 35
    c63 38 74 60 60 122 -11 45 -43 78 -96 99 -41 16 -43 18 -60 88 -21 87 -30
    106 -52 106 -10 0 -55 -52 -112 -130 -52 -71 -98 -130 -102 -130 -22 0 -12 30
    42 127 67 120 75 141 66 179 -7 24 -10 26 -48 21 -32 -4 -50 -15 -83 -51 -48
    -53 -97 -76 -160 -76 -38 0 -52 6 -83 34 -24 23 -34 38 -27 44 6 6 64 29 130
    52 174 61 245 103 245 145 0 43 -76 86 -165 92 -52 3 -67 0 -110 -24z"/>
</a>
<a class="regiao" name="leste" code="3">
    <path d="M12005 13748 c-37 -12 -74 -17 -95 -14 l-35 5 52 -47 c86 -78 86 -71
    -5 -245 -104 -200 -203 -365 -239 -399 -54 -52 -84 -58 -285 -55 -172 2 -186
    1 -233 -21 -27 -13 -67 -36 -87 -52 l-37 -30 -11 53 c-20 98 -56 133 -126 125
    -27 -3 -30 -9 -69 -135 -23 -73 -43 -135 -46 -138 -8 -7 -175 65 -268 116 -42
    23 -158 88 -258 146 -111 63 -201 107 -230 113 -27 6 -123 13 -214 17 -151 5
    -172 4 -236 -15 -38 -12 -82 -31 -97 -43 -28 -22 -28 -22 -22 -113 l7 -91
    -191 -135 c-105 -74 -195 -139 -200 -145 -5 -6 19 -84 54 -182 46 -125 74
    -187 103 -226 79 -103 88 -130 88 -247 0 -92 -4 -118 -33 -210 -61 -187 -125
    -285 -220 -332 -41 -20 -62 -23 -168 -23 -143 0 -159 8 -170 84 -15 106 -63
    147 -185 161 -109 12 -156 11 -168 -3 -5 -7 -14 -32 -21 -57 -31 -117 -61
    -124 -194 -50 -49 28 -90 49 -91 48 -23 -29 -85 -146 -85 -160 0 -43 -57 -154
    -108 -209 -134 -145 -142 -312 -22 -443 25 -27 42 -55 41 -68 0 -13 -3 -55 -7
    -93 -9 -99 11 -157 89 -259 5 -7 -19 -60 -57 -130 -36 -65 -66 -121 -66 -123
    0 -10 90 -120 125 -153 62 -59 79 -112 55 -176 -21 -54 43 -104 134 -104 36 0
    54 7 97 40 77 58 118 53 135 -15 19 -79 36 -92 157 -120 139 -31 151 -59 111
    -267 -9 -43 -13 -82 -10 -86 3 -5 77 -41 165 -82 l160 -73 -31 -36 c-102 -117
    -116 -307 -31 -433 l34 -51 -34 -36 c-19 -20 -79 -92 -133 -161 -54 -69 -127
    -160 -162 -202 -99 -118 -150 -129 -256 -54 -26 20 -78 45 -115 58 -58 20 -84
    23 -211 22 -218 -2 -270 -23 -270 -110 0 -51 9 -51 -107 -9 l-62 22 -6 -26
    c-3 -14 -4 -71 -4 -126 2 -75 -2 -111 -16 -143 -26 -63 -92 -116 -193 -154
    -210 -79 -327 -198 -392 -401 -44 -137 -127 -153 -325 -60 -81 37 -134 32
    -230 -23 -190 -109 -314 -151 -650 -220 -120 -24 -223 -50 -227 -57 -4 -6 -8
    -19 -8 -27 0 -26 -46 -114 -71 -137 -32 -29 -101 -58 -170 -73 -74 -14 -135
    -64 -126 -101 5 -21 20 -29 90 -52 96 -31 115 -32 192 -12 93 24 153 0 228
    -90 81 -97 157 -108 293 -43 118 57 174 57 329 3 97 -34 122 -39 205 -39 112
    -1 160 13 270 79 167 101 264 120 570 112 186 -5 237 -10 290 -26 115 -36 218
    -121 298 -246 48 -76 75 -107 193 -231 l77 -82 92 135 c66 96 103 141 133 160
    23 15 74 50 112 79 94 71 147 94 215 93 30 0 64 -4 75 -8 13 -6 32 -2 55 9 74
    37 171 60 255 60 139 0 233 -40 345 -145 30 -28 66 -59 80 -68 38 -26 106 -21
    179 13 185 88 326 120 525 120 l144 0 74 69 c122 114 166 221 193 476 8 77 22
    162 31 188 11 32 15 70 12 116 -5 89 -32 130 -139 212 -90 68 -215 183 -229
    210 -6 11 -6 38 1 73 8 47 8 59 -6 72 -45 46 -48 63 -46 366 l1 289 108 133
    c59 74 126 159 149 190 28 36 59 64 92 81 70 35 116 84 136 145 14 43 16 80
    13 223 l-5 172 -57 180 c-32 99 -73 205 -91 235 -102 172 -104 224 -16 448 57
    148 77 232 67 285 -9 46 -57 110 -123 162 -67 52 -103 119 -103 193 0 77 23
    118 81 147 57 29 79 57 149 190 38 73 72 120 125 175 133 137 193 263 202 430
    5 92 7 97 46 150 66 89 237 300 244 300 3 0 11 -6 17 -14 9 -11 30 -8 127 19
    64 18 157 38 205 44 161 19 306 114 374 243 46 88 62 103 173 160 97 50 99 51
    128 113 17 37 62 100 107 150 151 170 176 229 128 295 -14 19 -33 46 -42 58
    -10 13 -19 47 -22 76 -3 43 2 66 28 126 31 71 32 74 16 107 -9 18 -27 38 -42
    43 -14 6 -100 10 -191 10 l-165 0 -28 30 c-33 36 -66 38 -155 8z"/>
</a>
<a class="regiao" name="centro" code="5">
    <path d="M6806 11765 c-13 -28 -17 -72 -18 -232 -2 -168 2 -218 21 -328 22
    -123 23 -133 8 -190 l-16 -60 27 -45 c22 -36 44 -53 107 -87 93 -49 170 -125
    209 -205 14 -29 37 -105 50 -168 35 -166 51 -204 142 -327 15 -21 15 -35 -6
    -200 -21 -169 -23 -179 -48 -198 -66 -49 -138 -131 -150 -171 -24 -82 -10
    -183 30 -221 13 -12 54 -39 92 -60 37 -22 68 -43 67 -49 -2 -12 -259 -113
    -290 -114 -13 0 -53 -15 -90 -32 -56 -29 -78 -33 -156 -36 -76 -3 -115 2 -240
    31 -83 19 -166 38 -186 41 -58 10 -99 66 -99 136 0 63 -23 98 -85 127 -30 13
    -63 35 -74 49 -14 18 -46 32 -120 53 -112 31 -141 50 -141 92 0 24 -6 30 -32
    37 -29 7 -35 15 -53 73 -16 50 -31 74 -69 112 l-49 48 -44 -43 c-53 -52 -143
    -184 -177 -259 -18 -42 -24 -76 -28 -154 -3 -84 -8 -110 -30 -155 -39 -79
    -104 -148 -200 -213 -147 -100 -321 -286 -359 -386 -25 -67 -29 -187 -9 -301
    16 -90 18 -233 6 -394 -8 -119 -8 -119 -45 -158 -31 -34 -50 -42 -142 -68
    -162 -45 -272 -67 -413 -85 -200 -24 -261 -60 -296 -173 -28 -90 -28 -92 25
    -92 35 0 52 -6 70 -24 32 -32 23 -59 -31 -98 -24 -17 -44 -35 -44 -40 0 -5 22
    -30 49 -56 72 -70 131 -202 131 -293 0 -61 -30 -77 -227 -114 l-31 -6 19 -66
    c10 -36 21 -68 23 -71 3 -2 43 -10 90 -17 97 -14 158 -41 231 -100 81 -66 103
    -78 162 -86 48 -7 62 -14 103 -54 44 -43 50 -46 71 -35 54 28 59 38 59 127 0
    45 4 83 8 83 5 0 35 -9 67 -20 73 -25 75 -25 75 3 0 36 54 91 127 130 97 50
    250 99 293 94 40 -5 209 35 244 58 28 19 44 51 65 135 l17 64 238 47 c354 70
    467 107 646 208 47 26 100 53 119 59 50 18 119 14 181 -9 144 -54 193 -70 206
    -65 7 3 21 31 30 63 30 105 82 192 169 279 68 69 95 88 180 128 203 97 209
    100 230 136 16 28 20 50 18 110 -3 81 14 250 27 270 6 10 25 7 82 -13 l75 -25
    28 35 c41 53 94 71 238 84 202 18 338 -9 460 -91 33 -22 64 -40 68 -40 11 0
    101 105 237 276 l119 151 -19 36 c-55 109 -61 252 -14 369 14 35 26 67 26 70
    0 3 -62 34 -137 68 -76 34 -139 63 -140 64 -2 2 9 67 23 146 14 78 23 148 20
    155 -3 8 -31 18 -63 25 -120 24 -177 57 -202 118 l-12 28 -56 -28 c-60 -30
    -120 -36 -182 -18 -84 24 -159 111 -147 171 20 95 22 84 -41 151 -33 35 -80
    90 -105 124 l-46 60 66 119 65 118 -25 46 c-45 79 -61 155 -54 245 6 79 5 81
    -23 111 -16 16 -42 55 -58 85 -25 50 -28 65 -28 160 0 93 3 112 27 162 15 32
    48 80 74 108 26 27 57 71 70 97 l22 47 -37 32 c-20 17 -47 55 -61 83 -29 62
    -46 69 -132 47 -64 -16 -425 -89 -488 -100 -19 -3 -61 0 -94 7 l-58 12 -92
    152 c-50 84 -94 153 -97 153 -4 0 -14 -16 -23 -35z"/>
</a>
<a class="regiao" name="sul" code="2">
    <path d="M2577 7115 c-14 -69 -96 -371 -162 -595 -63 -214 -63 -215 -58 -311
    l6 -96 -97 -180 -96 -180 -62 -7 c-83 -10 -112 -27 -138 -81 -20 -40 -21 -49
    -9 -77 20 -48 102 -123 175 -159 l66 -33 48 27 c62 35 92 34 132 -2 31 -28 32
    -31 18 -54 -8 -14 -45 -60 -82 -103 -38 -42 -68 -81 -68 -85 0 -4 31 -18 69
    -30 65 -21 69 -24 94 -73 14 -29 82 -114 157 -196 80 -88 164 -194 215 -270
    124 -188 408 -533 469 -571 49 -31 81 -19 156 60 l65 69 140 45 c212 70 344
    107 378 107 46 0 109 -43 158 -107 l44 -58 -1 -115 c0 -154 -17 -320 -35 -348
    -20 -31 -80 -58 -177 -77 -235 -47 -319 -106 -386 -275 -42 -106 -82 -180 -97
    -180 -18 0 -69 -93 -69 -126 0 -17 8 -42 19 -55 18 -23 18 -24 -6 -88 -24 -63
    -24 -66 -7 -103 36 -80 16 -128 -62 -147 -36 -9 -44 -15 -44 -35 0 -55 -16
    -89 -71 -153 -113 -130 -96 -212 51 -248 77 -20 124 -50 191 -123 72 -78 91
    -122 87 -192 -3 -57 -3 -57 75 -169 l79 -112 70 7 c69 7 69 7 105 -27 19 -19
    66 -74 104 -123 l69 -88 -35 -47 c-79 -104 -145 -207 -145 -226 0 -30 31 -76
    97 -143 35 -36 70 -62 89 -66 46 -10 91 -42 109 -76 8 -16 20 -77 25 -134 16
    -168 58 -264 165 -372 81 -82 148 -109 257 -100 70 5 81 3 123 -21 58 -32 127
    -33 205 -4 30 12 56 21 56 21 1 0 4 -18 8 -39 7 -48 45 -81 92 -81 66 0 76 10
    152 158 100 196 112 243 122 487 5 110 14 223 20 250 6 28 19 129 30 225 11
    96 27 210 35 253 14 66 15 89 5 150 -13 77 -36 107 -110 152 -57 34 -67 63
    -84 249 -22 231 -50 330 -119 412 -42 50 -41 62 17 179 39 78 77 136 131 200
    165 194 240 336 281 534 21 99 34 135 100 266 42 82 92 173 110 202 62 97 73
    131 119 348 53 249 109 431 160 515 47 77 140 162 219 200 36 17 198 69 362
    116 163 46 308 91 323 99 14 8 62 44 106 80 131 108 177 122 265 84 30 -13 59
    -19 74 -15 14 3 52 41 94 93 176 220 336 338 534 393 65 18 128 58 128 81 0 4
    -61 73 -135 154 -74 80 -159 183 -189 229 -99 150 -196 214 -345 227 -47 4
    -162 8 -256 8 -231 1 -307 -17 -447 -104 -173 -108 -328 -118 -567 -38 -124
    42 -146 41 -257 -13 -71 -35 -87 -39 -154 -39 -94 1 -135 21 -221 109 -34 36
    -73 67 -87 71 -13 3 -47 -2 -74 -11 -34 -11 -68 -15 -102 -11 -67 7 -205 54
    -233 80 -29 26 -47 81 -40 123 3 19 4 34 3 34 -14 0 -123 -43 -172 -68 -76
    -38 -91 -53 -104 -101 -15 -57 -40 -75 -95 -69 l-45 6 0 -34 c0 -41 -44 -94
    -109 -131 -25 -15 -53 -33 -62 -40 -15 -12 -23 -6 -74 52 -53 61 -60 65 -99
    65 -45 0 -93 26 -206 112 -65 50 -138 78 -202 78 -50 0 -100 21 -125 54 -12
    14 -29 58 -38 97 l-17 70 -67 -8 c-92 -11 -190 -9 -231 5 -19 7 -60 35 -90 63
    -144 134 -290 189 -595 224 -202 23 -184 14 -187 93 -3 63 -3 65 -11 27z"/>
</a>
</g>
</svg>